<svg xmlns="http://www.w3.org/2000/svg" xmlns:xlink="http://www.w3.org/1999/xlink" version="1.1" id="Layer_1" x="0px" y="0px" style="enable-background:new 0 0 841.89 595.28;" xml:space="preserve" viewBox="24.11 171.17 799.94 257.45">
<style type="text/css">
	.st0{fill:none;stroke:#FFFFFF;stroke-width:5;stroke-linecap:round;stroke-linejoin:round;stroke-miterlimit:10;}
</style>
<line class="st0" x1="620.17" y1="275.69" x2="739.98" y2="257.93"/>
<path class="st0" d="M537.35,280.13c0,0-16.16,14.17-8.79,12.47c7.37-1.7,27.5-15.21,27.5-15.21s-9.21,12.09,0,9.69  s26.36-12.47,26.93-13.04s-12.08,15.39,0.99,9.35c17.1-7.89,48.09-47.95,60.19-81.21c11.83-32.53,5.48-31.75,0-24.19  c-5.48,7.56-42.71,100.54-44.03,110.17"/>
<path class="st0" d="M522.47,264.17c0,0,1.22,5.74-2.65,13.23"/>
<path class="st0" d="M458.27,291.05c0,0-18.71,16.02-12.47,15.31c6.24-0.71,27.5-15.45,27.64-16.02s-8.08,14.6,0,11.91  c8.08-2.69,19.28-12.9,19.42-13.32c0.14-0.43-6.24,10.63,2.27,7.8c8.5-2.83,21.35-13.04,21.35-13.04s-48.7,118.06-53.24,113.81  c-4.54-4.25,7.65-51.31,19.94-69.07"/>
<circle class="st0" cx="821.02" cy="267.28" r="0.53"/>
<path class="st0" d="M326.31,421.58c0,0,130.08-224.29,142.68-224.88c10.95-0.51-73.02,168.94-71.34,171.59  c0,0-5.39-29.86-69.64-34.02c-60.95-3.94-114.52,20.41-103.18,23.43c11.34,3.02,584.79-89.04,584.79-89.04  s-121.42,28.62-124.06,28.97"/>
<line class="st0" x1="102.38" y1="348.64" x2="173.43" y2="341.08"/>
<circle class="st0" cx="368.17" cy="313.58" r="0.47"/>
<path class="st0" d="M292.87,205.02l-115.09,221.1c0,0,38.36-55.94,16.06-119.43S70.63,260.2,44.55,273.8  c-26.08,13.61-22.57,24.13,3.02,22.3c26.46-1.89,94.11-10.2,197.67-32.5s85.61-11.53,76.72-4.16c-7.51,6.23-61.23,40.82-75.97,41.2  c0,0,5.22,23.03,38.93,23.43c31.37,0.38,62.74-15.87,64.63-18.9"/>
</svg>
